HIERARCHY
ROOT mixamorig:Hips
{
	OFFSET 0.000000 103.991501 0.000000
	CHANNELS 6 Xposition Yposition Zposition Xrotation Yrotation Zrotation
	JOINT mixamorig:Spine
	{
		OFFSET 0.000000 10.181602 0.131500
		CHANNELS 6 Xposition Yposition Zposition Xrotation Yrotation Zrotation
		JOINT mixamorig:Spine1
		{
			OFFSET 0.000000 10.083504 -1.000800
			CHANNELS 6 Xposition Yposition Zposition Xrotation Yrotation Zrotation
			JOINT mixamorig:Spine2
			{
				OFFSET 0.000000 9.100006 -1.373400
				CHANNELS 6 Xposition Yposition Zposition Xrotation Yrotation Zrotation
				JOINT mixamorig:Neck
				{
					OFFSET 0.000000 16.671707 -2.516200
					CHANNELS 6 Xposition Yposition Zposition Xrotation Yrotation Zrotation
					JOINT mixamorig:Head
					{
						OFFSET 0.000000 9.617905 1.685000
						CHANNELS 6 Xposition Yposition Zposition Xrotation Yrotation Zrotation
						JOINT mixamorig:HeadTop_End
						{
							OFFSET 0.000000 17.815201 2.585000
							CHANNELS 6 Xposition Yposition Zposition Xrotation Yrotation Zrotation
							End Site
							{
								OFFSET 0.000000 13.794495 0.000000
							}
						}
						JOINT mixamorig:LeftEye
						{
							OFFSET 3.067600 6.409500 9.283600
							CHANNELS 6 Xposition Yposition Zposition Xrotation Yrotation Zrotation
							End Site
							{
								OFFSET 0.000000 13.794495 0.000000
							}
						}
						JOINT mixamorig:RightEye
						{
							OFFSET -3.067600 6.409500 9.283500
							CHANNELS 6 Xposition Yposition Zposition Xrotation Yrotation Zrotation
							End Site
							{
								OFFSET 0.000000 13.794495 0.000000
							}
						}
					}
				}
				JOINT mixamorig:LeftShoulder
				{
					OFFSET 4.570400 10.945999 -2.628000
					CHANNELS 6 Xposition Yposition Zposition Xrotation Yrotation Zrotation
					JOINT mixamorig:LeftArm
					{
						OFFSET 10.592400 -0.524597 -2.232100
						CHANNELS 6 Xposition Yposition Zposition Xrotation Yrotation Zrotation
						JOINT mixamorig:LeftForeArm
						{
							OFFSET 27.841499 0.000000 0.000000
							CHANNELS 6 Xposition Yposition Zposition Xrotation Yrotation Zrotation
							JOINT mixamorig:LeftHand
							{
								OFFSET 28.328800 0.000000 0.000000
								CHANNELS 6 Xposition Yposition Zposition Xrotation Yrotation Zrotation
								JOINT mixamorig:LeftHandThumb1
								{
									OFFSET 2.466103 -1.576218 2.681689
									CHANNELS 6 Xposition Yposition Zposition Xrotation Yrotation Zrotation
									JOINT mixamorig:LeftHandThumb2
									{
										OFFSET 3.229782 -1.864716 1.864716
										CHANNELS 6 Xposition Yposition Zposition Xrotation Yrotation Zrotation
										JOINT mixamorig:LeftHandThumb3
										{
											OFFSET 2.652611 -1.531494 1.531488
											CHANNELS 6 Xposition Yposition Zposition Xrotation Yrotation Zrotation
											JOINT mixamorig:LeftHandThumb4
											{
												OFFSET 1.954605 -1.128494 1.128493
												CHANNELS 6 Xposition Yposition Zposition Xrotation Yrotation Zrotation
												End Site
												{
													OFFSET -0.000404 2.523392 0.000683
												}
											}
										}
									}
								}
								JOINT mixamorig:LeftHandIndex1
								{
									OFFSET 9.109299 -0.518112 2.259867
									CHANNELS 6 Xposition Yposition Zposition Xrotation Yrotation Zrotation
									JOINT mixamorig:LeftHandIndex2
									{
										OFFSET 3.676399 0.000000 0.000000
										CHANNELS 6 Xposition Yposition Zposition Xrotation Yrotation Zrotation
										JOINT mixamorig:LeftHandIndex3
										{
											OFFSET 2.883102 0.000000 0.000000
											CHANNELS 6 Xposition Yposition Zposition Xrotation Yrotation Zrotation
											JOINT mixamorig:LeftHandIndex4
											{
												OFFSET 2.392700 0.000000 0.000000
												CHANNELS 6 Xposition Yposition Zposition Xrotation Yrotation Zrotation
												End Site
												{
													OFFSET 0.000000 2.392700 0.001080
												}
											}
										}
									}
								}
								JOINT mixamorig:LeftHandMiddle1
								{
									OFFSET 9.533401 0.000000 0.000000
									CHANNELS 6 Xposition Yposition Zposition Xrotation Yrotation Zrotation
									JOINT mixamorig:LeftHandMiddle2
									{
										OFFSET 3.698196 0.000000 0.000000
										CHANNELS 6 Xposition Yposition Zposition Xrotation Yrotation Zrotation
										JOINT mixamorig:LeftHandMiddle3
										{
											OFFSET 2.950897 0.000000 0.000000
											CHANNELS 6 Xposition Yposition Zposition Xrotation Yrotation Zrotation
											JOINT mixamorig:LeftHandMiddle4
											{
												OFFSET 2.833900 0.000000 0.000000
												CHANNELS 6 Xposition Yposition Zposition Xrotation Yrotation Zrotation
												End Site
												{
													OFFSET 0.000000 2.833893 0.001278
												}
											}
										}
									}
								}
								JOINT mixamorig:LeftHandRing1
								{
									OFFSET 9.104500 -0.043060 -1.865119
									CHANNELS 6 Xposition Yposition Zposition Xrotation Yrotation Zrotation
									JOINT mixamorig:LeftHandRing2
									{
										OFFSET 3.153999 0.000000 0.000000
										CHANNELS 6 Xposition Yposition Zposition Xrotation Yrotation Zrotation
										JOINT mixamorig:LeftHandRing3
										{
											OFFSET 2.937698 0.000000 0.000000
											CHANNELS 6 Xposition Yposition Zposition Xrotation Yrotation Zrotation
											JOINT mixamorig:LeftHandRing4
											{
												OFFSET 2.647499 0.000000 0.000000
												CHANNELS 6 Xposition Yposition Zposition Xrotation Yrotation Zrotation
												End Site
												{
													OFFSET 0.000000 2.647507 0.001195
												}
											}
										}
									}
								}
								JOINT mixamorig:LeftHandPinky1
								{
									OFFSET 8.077797 -0.486984 -3.806321
									CHANNELS 6 Xposition Yposition Zposition Xrotation Yrotation Zrotation
									JOINT mixamorig:LeftHandPinky2
									{
										OFFSET 3.599998 0.000000 0.000000
										CHANNELS 6 Xposition Yposition Zposition Xrotation Yrotation Zrotation
										JOINT mixamorig:LeftHandPinky3
										{
											OFFSET 2.114197 0.000000 0.000000
											CHANNELS 6 Xposition Yposition Zposition Xrotation Yrotation Zrotation
											JOINT mixamorig:LeftHandPinky4
											{
												OFFSET 1.975700 0.000000 0.000000
												CHANNELS 6 Xposition Yposition Zposition Xrotation Yrotation Zrotation
												End Site
												{
													OFFSET 0.000000 1.975693 0.000892
												}
											}
										}
									}
								}
							}
						}
					}
				}
				JOINT mixamorig:RightShoulder
				{
					OFFSET -4.570000 10.946198 -2.628000
					CHANNELS 6 Xposition Yposition Zposition Xrotation Yrotation Zrotation
					JOINT mixamorig:RightArm
					{
						OFFSET -10.592800 -0.524796 -2.232100
						CHANNELS 6 Xposition Yposition Zposition Xrotation Yrotation Zrotation
						JOINT mixamorig:RightForeArm
						{
							OFFSET -27.841499 0.000000 0.000000
							CHANNELS 6 Xposition Yposition Zposition Xrotation Yrotation Zrotation
							JOINT mixamorig:RightHand
							{
								OFFSET -28.328800 0.000000 0.000000
								CHANNELS 6 Xposition Yposition Zposition Xrotation Yrotation Zrotation
								JOINT mixamorig:RightHandPinky1
								{
									OFFSET -8.076698 -0.486725 -3.806227
									CHANNELS 6 Xposition Yposition Zposition Xrotation Yrotation Zrotation
									JOINT mixamorig:RightHandPinky2
									{
										OFFSET -3.599998 0.000000 0.000000
										CHANNELS 6 Xposition Yposition Zposition Xrotation Yrotation Zrotation
										JOINT mixamorig:RightHandPinky3
										{
											OFFSET -2.114197 0.000000 0.000000
											CHANNELS 6 Xposition Yposition Zposition Xrotation Yrotation Zrotation
											JOINT mixamorig:RightHandPinky4
											{
												OFFSET -1.975700 0.000000 0.000000
												CHANNELS 6 Xposition Yposition Zposition Xrotation Yrotation Zrotation
												End Site
												{
													OFFSET 0.000000 1.975693 0.000919
												}
											}
										}
									}
								}
								JOINT mixamorig:RightHandRing1
								{
									OFFSET -9.103600 -0.043030 -1.865120
									CHANNELS 6 Xposition Yposition Zposition Xrotation Yrotation Zrotation
									JOINT mixamorig:RightHandRing2
									{
										OFFSET -3.153999 0.000000 0.000000
										CHANNELS 6 Xposition Yposition Zposition Xrotation Yrotation Zrotation
										JOINT mixamorig:RightHandRing3
										{
											OFFSET -2.937698 0.000000 0.000000
											CHANNELS 6 Xposition Yposition Zposition Xrotation Yrotation Zrotation
											JOINT mixamorig:RightHandRing4
											{
												OFFSET -2.647499 0.000000 0.000000
												CHANNELS 6 Xposition Yposition Zposition Xrotation Yrotation Zrotation
												End Site
												{
													OFFSET 0.000000 2.647507 0.001231
												}
											}
										}
									}
								}
								JOINT mixamorig:RightHandMiddle1
								{
									OFFSET -9.532501 0.000000 0.000000
									CHANNELS 6 Xposition Yposition Zposition Xrotation Yrotation Zrotation
									JOINT mixamorig:RightHandMiddle2
									{
										OFFSET -3.698196 0.000000 0.000000
										CHANNELS 6 Xposition Yposition Zposition Xrotation Yrotation Zrotation
										JOINT mixamorig:RightHandMiddle3
										{
											OFFSET -2.950897 0.000000 0.000000
											CHANNELS 6 Xposition Yposition Zposition Xrotation Yrotation Zrotation
											JOINT mixamorig:RightHandMiddle4
											{
												OFFSET -2.833900 0.000000 0.000000
												CHANNELS 6 Xposition Yposition Zposition Xrotation Yrotation Zrotation
												End Site
												{
													OFFSET 0.000000 2.833893 0.001318
												}
											}
										}
									}
								}
								JOINT mixamorig:RightHandIndex1
								{
									OFFSET -9.108299 -0.517853 2.259859
									CHANNELS 6 Xposition Yposition Zposition Xrotation Yrotation Zrotation
									JOINT mixamorig:RightHandIndex2
									{
										OFFSET -3.676399 0.000000 0.000000
										CHANNELS 6 Xposition Yposition Zposition Xrotation Yrotation Zrotation
										JOINT mixamorig:RightHandIndex3
										{
											OFFSET -2.883102 0.000000 0.000000
											CHANNELS 6 Xposition Yposition Zposition Xrotation Yrotation Zrotation
											JOINT mixamorig:RightHandIndex4
											{
												OFFSET -2.392700 0.000000 0.000000
												CHANNELS 6 Xposition Yposition Zposition Xrotation Yrotation Zrotation
												End Site
												{
													OFFSET 0.000000 2.392700 0.001113
												}
											}
										}
									}
								}
								JOINT mixamorig:RightHandThumb1
								{
									OFFSET -2.464798 -1.573944 2.681868
									CHANNELS 6 Xposition Yposition Zposition Xrotation Yrotation Zrotation
									JOINT mixamorig:RightHandThumb2
									{
										OFFSET -3.229782 -1.864716 1.864716
										CHANNELS 6 Xposition Yposition Zposition Xrotation Yrotation Zrotation
										JOINT mixamorig:RightHandThumb3
										{
											OFFSET -2.652542 -1.531448 1.531448
											CHANNELS 6 Xposition Yposition Zposition Xrotation Yrotation Zrotation
											JOINT mixamorig:RightHandThumb4
											{
												OFFSET -1.954605 -1.128494 1.128493
												CHANNELS 6 Xposition Yposition Zposition Xrotation Yrotation Zrotation
												End Site
												{
													OFFSET 0.000412 2.523392 0.000704
												}
											}
										}
									}
								}
							}
						}
					}
				}
			}
		}
	}
	JOINT mixamorig:LeftUpLeg
	{
		OFFSET 8.207800 -6.751701 -1.599600
		CHANNELS 6 Xposition Yposition Zposition Xrotation Yrotation Zrotation
		JOINT mixamorig:LeftLeg
		{
			OFFSET 0.000000 -44.370499 0.284600
			CHANNELS 6 Xposition Yposition Zposition Xrotation Yrotation Zrotation
			JOINT mixamorig:LeftFoot
			{
				OFFSET 0.000000 -44.427898 -2.982200
				CHANNELS 6 Xposition Yposition Zposition Xrotation Yrotation Zrotation
				JOINT mixamorig:LeftToeBase
				{
					OFFSET 0.000000 -8.728700 10.710600
					CHANNELS 6 Xposition Yposition Zposition Xrotation Yrotation Zrotation
					JOINT mixamorig:LeftToe_End
					{
						OFFSET 0.000000 -0.000700 9.278099
						CHANNELS 6 Xposition Yposition Zposition Xrotation Yrotation Zrotation
						End Site
						{
							OFFSET 0.000000 9.278100 0.000000
						}
					}
				}
			}
		}
	}
	JOINT mixamorig:RightUpLeg
	{
		OFFSET -8.207800 -6.751701 -1.599600
		CHANNELS 6 Xposition Yposition Zposition Xrotation Yrotation Zrotation
		JOINT mixamorig:RightLeg
		{
			OFFSET 0.000000 -44.370499 0.286200
			CHANNELS 6 Xposition Yposition Zposition Xrotation Yrotation Zrotation
			JOINT mixamorig:RightFoot
			{
				OFFSET 0.000000 -44.427700 -2.983800
				CHANNELS 6 Xposition Yposition Zposition Xrotation Yrotation Zrotation
				JOINT mixamorig:RightToeBase
				{
					OFFSET 0.000000 -8.728700 10.710600
					CHANNELS 6 Xposition Yposition Zposition Xrotation Yrotation Zrotation
					JOINT mixamorig:RightToe_End
					{
						OFFSET 0.000000 -0.000700 9.278100
						CHANNELS 6 Xposition Yposition Zposition Xrotation Yrotation Zrotation
						End Site
						{
							OFFSET 0.000000 9.278100 0.000000
						}
					}
				}
			}
		}
	}
}
MOTION
Frames: 3
Frame Time: 0.016667
-88.750290 100.802017 -2.648694 -2.300643 49.297095 2.946837 0.000007 10.181600 0.131497 3.353352 16.350348 0.623337 0.000003 10.083494 -1.000804 0.082433 2.219702 -1.399598 0.000001 9.100009 -1.373395 0.129989 2.211457 -1.410072 0.000000 16.671690 -2.516201 3.590909 -11.727623 4.388414 -0.000005 9.617910 1.684989 23.908365 -56.358896 38.319885 0.000003 17.815201 2.584989 0.000002 -0.000000 -0.000001 3.067593 6.409500 9.283591 0.000002 -0.000000 -0.000001 -3.067598 6.409485 9.283491 0.000002 -0.000000 -0.000001 4.570404 10.945976 -2.627996 -0.157677 2.519038 5.278269 10.592411 -0.524605 -2.232090 53.868630 -31.204583 -64.509566 27.841497 0.000008 -0.000003 0.000003 -56.753053 -0.000011 28.328802 0.000001 0.000004 37.536975 -3.180378 -17.017850 2.466091 -1.576210 2.681690 -1.540038 3.690186 6.142347 3.229778 -1.864721 1.864711 3.939057 7.948703 0.746793 2.652615 -1.531461 1.531486 -0.579467 1.574993 2.538717 1.954598 -1.128494 1.128492 -0.000001 0.000000 -0.000000 9.109287 -0.518110 2.259868 0.636931 2.897103 -24.793452 3.676376 -0.000017 0.000001 0.188363 1.602672 -13.405760 2.883093 -0.000002 0.000001 0.213946 1.706405 -14.291801 2.392712 0.000002 0.000002 -0.000001 0.000001 0.000001 9.533394 0.000001 0.000001 0.714331 3.058880 -26.283253 3.698209 -0.000011 -0.000000 0.176805 1.553387 -12.985960 2.950891 -0.000034 -0.000003 0.187140 1.597532 -13.361938 2.833896 -0.000033 0.000001 -0.000000 -0.000000 -0.000001 9.104495 -0.043065 -1.865115 0.880088 3.373306 -29.237171 3.154000 0.000007 -0.000001 0.132825 1.348611 -11.249264 2.937696 -0.000006 0.000003 0.157918 1.469124 -12.269892 2.647506 -0.000002 -0.000001 0.000001 0.000000 0.000000 8.077791 -0.486977 -3.806322 3.287975 7.149362 -32.417253 3.599988 0.000012 0.000003 0.063678 -3.054650 -8.824173 2.114184 0.000009 0.000002 0.144814 1.407531 -11.747778 1.975690 0.000015 0.000001 -0.000000 0.000000 -0.000002 -4.569999 10.946193 -2.627999 1.721648 19.252302 1.612581 -10.592800 -0.524797 -2.232105 47.026665 49.328241 23.831112 -27.841503 -0.000021 -0.000007 -0.000051 66.115364 0.000047 -28.328787 0.000014 -0.000009 23.013474 -6.117797 -3.082719 -8.076697 -0.486711 -3.806225 0.221415 -1.744089 14.469076 -3.599998 0.000000 -0.000002 0.000008 0.006118 0.000013 -2.114173 0.000012 0.000006 0.010272 -0.378668 3.108748 -1.975692 -0.000001 0.000003 -0.000000 0.000001 -0.000000 -9.103592 -0.043030 -1.865122 0.212751 -1.710194 14.181752 -3.153989 0.000010 0.000005 0.014918 -0.456204 3.746207 -2.937691 0.000010 0.000002 0.021995 -0.553746 4.548822 -2.647480 0.000000 0.000002 -0.000000 -0.000000 -0.000002 -9.532496 -0.000007 0.000001 0.128781 -1.334719 11.022042 -3.698180 -0.000001 -0.000001 0.024704 -0.586852 4.821329 -2.950878 0.000001 0.000002 0.069803 -0.984778 8.108607 -2.833894 -0.000031 -0.000007 -0.000000 -0.000002 0.000000 -9.108296 -0.517859 2.259861 0.053533 -0.862946 7.099732 -3.676394 -0.000003 -0.000004 0.008237 -0.339149 2.784054 -2.883110 -0.000002 -0.000001 0.193617 -1.632607 13.525462 -2.392691 -0.000014 -0.000002 0.000000 0.000001 -0.000000 -2.464787 -1.573937 2.681874 -13.070930 -12.221514 -13.977604 -3.229779 -1.864679 1.864718 -5.547016 -23.254351 -2.086126 -2.652537 -1.531459 1.531443 -1.273761 0.137319 -2.094870 -1.954620 -1.128485 1.128491 0.000003 0.000002 -0.000006 8.207800 -6.751708 -1.599609 -15.550133 -3.230982 11.373612 0.000003 -44.370502 0.284595 8.262928 -10.106339 -8.742977 -0.000004 -44.427902 -2.982193 4.951017 -15.247202 -6.264828 -0.000003 -8.728700 10.710599 -0.000032 0.000005 0.000056 -0.000006 -0.000700 9.278101 0.000000 0.000002 -0.000000 -8.207794 -6.751702 -1.599606 4.672766 -1.739864 -3.892149 -0.000003 -44.370491 0.286196 16.891917 -1.825112 -1.970048 -0.000005 -44.427704 -2.983796 -18.359091 -14.756912 2.704291 -0.000005 -8.728699 10.710605 -0.150745 -0.000691 0.261112 -0.000008 -0.000700 9.278093 -0.000000 0.000002 -0.000000 
-88.907135 100.769707 -2.550968 -2.071759 49.530838 2.767899 0.000000 10.181602 0.131488 3.360484 15.630739 0.599677 -0.000003 10.083507 -1.000804 0.345865 2.120941 -1.353276 0.000007 9.100027 -1.373396 0.389845 2.112555 -1.356211 0.000003 16.671707 -2.516202 2.338584 -11.604199 5.588488 0.000000 9.617908 1.684995 19.142177 -55.026879 37.293615 0.000004 17.815201 2.585001 -0.000001 0.000000 -0.000000 3.067598 6.409500 9.283603 -0.000001 0.000000 -0.000000 -3.067609 6.409500 9.283504 -0.000001 0.000000 -0.000000 4.570401 10.945998 -2.627996 -0.181386 2.618145 5.496814 10.592400 -0.524589 -2.232099 52.544246 -31.701842 -64.991012 27.841497 -0.000005 -0.000002 -0.000002 -55.579404 0.000004 28.328808 0.000005 0.000002 37.355473 -4.849488 -16.761240 2.466084 -1.576244 2.681685 -1.540039 3.690184 6.142373 3.229787 -1.864707 1.864714 3.939054 7.948705 0.746815 2.652593 -1.531488 1.531485 -0.579467 1.574993 2.538716 1.954605 -1.128479 1.128493 -0.000000 -0.000000 -0.000000 9.109285 -0.518127 2.259866 0.799800 3.225931 -27.842388 3.676404 0.000022 -0.000002 0.269010 1.909471 -16.037025 2.883081 -0.000041 0.000001 0.254889 1.859653 -15.607455 2.392707 0.000014 -0.000001 -0.000000 -0.000000 0.000001 9.533386 -0.000008 -0.000001 0.895624 3.400867 -29.500181 3.698187 -0.000023 -0.000001 0.256770 1.866377 -15.665379 2.950907 -0.000017 0.000000 0.226485 1.754869 -14.707021 2.833893 -0.000030 0.000003 -0.000000 -0.000000 0.000000 9.104483 -0.043069 -1.865119 1.101853 3.741335 -32.810180 3.153996 -0.000002 0.000000 0.201667 1.657472 -13.873433 2.937689 0.000005 0.000001 0.192902 1.621596 -13.567101 2.647503 0.000001 -0.000001 -0.000000 0.000000 -0.000001 8.077766 -0.486995 -3.806317 3.797525 7.382493 -36.444544 3.599983 -0.000011 0.000001 0.114870 -2.765843 -11.252132 2.114193 0.000012 0.000001 0.176205 1.550789 -12.963864 1.975693 0.000002 0.000001 -0.000000 0.000000 -0.000000 -4.569999 10.946199 -2.627998 1.696710 19.356614 1.670679 -10.592800 -0.524783 -2.232103 47.789283 49.586176 21.780777 -27.841499 0.000001 -0.000005 0.000010 65.906531 -0.000016 -28.328808 -0.000001 0.000000 21.965957 -6.068510 -0.509800 -8.076703 -0.486708 -3.806226 0.221201 -1.743278 14.462202 -3.599976 -0.000010 0.000000 0.000009 0.007373 -0.000101 -2.114195 0.000000 0.000003 0.010237 -0.378022 3.103433 -1.975697 -0.000012 -0.000004 0.000001 -0.000001 0.000002 -9.103589 -0.043020 -1.865121 0.215741 -1.721967 14.281532 -3.154007 0.000003 -0.000004 0.015230 -0.460997 3.785503 -2.937698 -0.000020 0.000001 0.021536 -0.547968 4.501252 -2.647483 0.000001 -0.000003 -0.000001 0.000001 -0.000000 -9.532507 0.000018 0.000000 0.131316 -1.347652 11.130264 -3.698189 -0.000007 0.000004 0.025177 -0.592397 4.867011 -2.950861 -0.000026 -0.000004 0.068951 -0.978773 8.058746 -2.833909 -0.000030 -0.000005 -0.000001 -0.000000 0.000000 -9.108299 -0.517830 2.259859 0.053473 -0.862465 7.095756 -3.676403 -0.000006 0.000001 0.008187 -0.338034 2.774946 -2.883093 -0.000002 0.000002 0.193555 -1.632357 13.523375 -2.392684 -0.000015 -0.000001 -0.000000 -0.000000 -0.000000 -2.464805 -1.573932 2.681866 -13.074519 -12.222437 -13.977215 -3.229810 -1.864708 1.864711 -5.550121 -23.258599 -2.086671 -2.652550 -1.531453 1.531444 -1.273763 0.137319 -2.094874 -1.954606 -1.128507 1.128492 0.000002 0.000001 0.000001 8.207805 -6.751691 -1.599603 -15.804339 -2.726954 11.614003 0.000001 -44.370499 0.284596 8.007926 -10.123093 -8.895290 0.000006 -44.427902 -2.982199 5.174098 -16.407970 -6.545051 0.000006 -8.728700 10.710600 -0.000047 -0.000000 0.000088 -0.000003 -0.000700 9.278099 -0.000000 -0.000000 0.000000 -8.207798 -6.751693 -1.599606 4.280813 -2.501524 -3.563679 -0.000002 -44.370502 0.286205 17.201037 -2.010858 -2.517827 -0.000002 -44.427704 -2.983816 -18.306654 -14.414274 3.185380 -0.000001 -8.728700 10.710604 -0.203714 -0.001251 0.352846 -0.000006 -0.000700 9.278094 0.000000 0.000002 -0.000000 
-89.054329 100.753876 -2.431805 -1.766488 49.526108 2.484030 -0.000003 10.181598 0.131488 3.272130 14.933227 0.600635 0.000001 10.083497 -1.000800 0.603875 2.024335 -1.272713 -0.000003 9.099998 -1.373399 0.643046 2.016131 -1.268108 -0.000007 16.671686 -2.516203 1.560459 -11.327276 6.579306 0.000000 9.617927 1.684995 13.724734 -53.642434 35.161769 -0.000001 17.815186 2.585000 -0.000001 0.000000 0.000001 3.067591 6.409485 9.283599 -0.000001 0.000000 0.000001 -3.067607 6.409500 9.283498 -0.000001 0.000000 0.000001 4.570395 10.945994 -2.627995 -0.238676 2.908284 5.637166 10.592413 -0.524591 -2.232095 51.502498 -32.027392 -65.030798 27.841497 0.000007 0.000006 0.000021 -55.235139 0.000022 28.328787 0.000000 0.000005 35.800341 -6.281463 -16.467426 2.466100 -1.576247 2.681688 -1.540041 3.690185 6.142361 3.229794 -1.864731 1.864716 3.939058 7.948704 0.746818 2.652599 -1.531474 1.531486 -0.579468 1.574993 2.538717 1.954591 -1.128479 1.128494 -0.000000 0.000000 -0.000000 9.109294 -0.518107 2.259864 0.938837 3.476005 -30.220630 3.676400 -0.000017 -0.000001 0.354610 2.185215 -18.432553 2.883097 0.000002 -0.000001 0.295198 1.998277 -16.805067 2.392699 -0.000017 -0.000002 0.000001 -0.000000 0.000001 9.533408 -0.000000 -0.000004 1.059620 3.675140 -32.157176 3.698202 -0.000029 -0.000001 0.346567 2.160957 -18.220523 2.950886 0.000004 0.000000 0.268126 1.906387 -16.010431 2.833901 0.000000 -0.000002 -0.000000 0.000001 -0.000000 9.104489 -0.043088 -1.865120 1.314508 4.051485 -35.938830 3.154002 0.000012 -0.000003 0.286483 1.969189 -16.553119 2.937690 0.000013 -0.000004 0.232958 1.779320 -14.916722 2.647507 -0.000030 0.000003 -0.000001 -0.000001 -0.000000 8.077777 -0.486988 -3.806325 4.274831 7.563331 -40.113254 3.599984 -0.000008 0.000002 0.184673 -2.453318 -13.902533 2.114187 -0.000005 0.000002 0.213945 1.706397 -14.291727 1.975708 0.000015 0.000001 0.000000 -0.000001 0.000000 -4.570005 10.946199 -2.627997 1.685862 19.340591 1.634087 -10.592802 -0.524809 -2.232104 49.097182 49.965965 19.165775 -27.841486 -0.000020 0.000001 0.000014 65.586065 -0.000029 -28.328812 0.000014 0.000006 20.635649 -6.456635 2.085180 -8.076698 -0.486723 -3.806225 0.221225 -1.743345 14.462798 -3.600008 -0.000011 -0.000002 0.000002 0.007230 -0.000022 -2.114181 -0.000008 -0.000004 0.010248 -0.378085 3.103995 -1.975710 0.000001 0.000000 -0.000001 -0.000000 0.000001 -9.103586 -0.043037 -1.865117 0.219193 -1.735441 14.395853 -3.153994 -0.000021 -0.000002 0.015690 -0.467917 3.842453 -2.937694 0.000001 0.000000 0.021098 -0.542378 4.455125 -2.647493 -0.000000 -0.000001 -0.000001 0.000001 0.000001 -9.532485 0.000001 0.000006 0.134165 -1.362038 11.250677 -3.698200 -0.000008 -0.000005 0.025839 -0.600118 4.930644 -2.950874 -0.000002 -0.000000 0.068108 -0.972825 8.009478 -2.833900 -0.000015 0.000000 -0.000001 -0.000001 -0.000000 -9.108290 -0.517852 2.259863 0.053478 -0.862483 7.095913 -3.676403 -0.000005 -0.000005 0.008194 -0.338132 2.775735 -2.883100 -0.000005 0.000002 0.193558 -1.632365 13.523454 -2.392687 -0.000000 0.000001 -0.000002 -0.000001 0.000001 -2.464787 -1.573941 2.681872 -13.074077 -12.222320 -13.977264 -3.229765 -1.864704 1.864718 -5.549736 -23.258082 -2.086625 -2.652534 -1.531460 1.531450 -1.273764 0.137318 -2.094878 -1.954594 -1.128505 1.128488 -0.000002 0.000000 0.000002 8.207801 -6.751719 -1.599605 -15.936875 -2.211776 11.942874 -0.000000 -44.370502 0.284596 7.624474 -10.074329 -9.070768 -0.000003 -44.427898 -2.982199 5.409798 -17.183889 -6.620220 -0.000003 -8.728699 10.710601 -0.137617 -0.000000 -0.000000 -0.000005 -0.000700 9.278098 0.000000 0.000001 0.000000 -8.207800 -6.751716 -1.599609 3.887046 -3.431021 -3.302865 0.000004 -44.370499 0.286194 17.355634 -2.199565 -3.010956 0.000001 -44.427708 -2.983805 -18.220923 -13.623944 3.622178 -0.000004 -8.728699 10.710600 -0.298488 -0.000904 0.298196 0.000009 -0.000700 9.278102 -0.000000 -0.000002 0.000000 
